<svg width="241" height="78" viewBox="0 0 241 78" fill="none" xmlns="http://www.w3.org/2000/svg">
<path fill-rule="evenodd" clip-rule="evenodd" d="M104.148 62.1138V23.5732H114.236V38.2034L116.19 35.6902L125.859 24.3459H137.971L124.323 40.0883L139.158 62.1138H127.57L117.866 46.9647L114.236 50.5949V62.1138H104.148ZM67.113 24.3459V62.1138H77.2357V24.3459H67.113ZM96.2592 64.1732V24.3459H86.1366V64.243C86.1366 67.4776 84.6124 69.0949 81.564 69.0949C81.2556 69.0949 80.9299 69.0828 80.5866 69.0586V77.1898C81.493 77.3083 82.4238 77.3675 83.3791 77.3675C87.5445 77.3675 90.7325 76.204 92.9432 73.877C95.1539 71.5732 96.2592 68.3386 96.2592 64.1732Z" fill="#221E1E"/>
<path d="M71.473 6.754V8H67.399V3.1H71.382V4.346H69.023V4.92H71.095V6.11H69.023V6.754H71.473ZM76.834 8L76.82 5.767L75.756 7.559H75.028L73.964 5.844V8H72.459V3.1H73.817L75.413 5.711L76.967 3.1H78.325L78.339 8H76.834ZM81.8467 3.1C82.2993 3.1 82.6937 3.17467 83.0297 3.324C83.3657 3.47333 83.6247 3.688 83.8067 3.968C83.9887 4.248 84.0797 4.57467 84.0797 4.948C84.0797 5.32133 83.9887 5.648 83.8067 5.928C83.6247 6.208 83.3657 6.42267 83.0297 6.572C82.6937 6.72133 82.2993 6.796 81.8467 6.796H81.1397V8H79.4877V3.1H81.8467ZM81.7417 5.522C81.9657 5.522 82.1337 5.473 82.2457 5.375C82.3577 5.27233 82.4137 5.13 82.4137 4.948C82.4137 4.766 82.3577 4.626 82.2457 4.528C82.1337 4.42533 81.9657 4.374 81.7417 4.374H81.1397V5.522H81.7417ZM87.6088 8.112C87.0815 8.112 86.6078 8.00233 86.1878 7.783C85.7678 7.56367 85.4388 7.26033 85.2008 6.873C84.9628 6.481 84.8438 6.04 84.8438 5.55C84.8438 5.06 84.9628 4.62133 85.2008 4.234C85.4388 3.842 85.7678 3.53633 86.1878 3.317C86.6078 3.09767 87.0815 2.988 87.6088 2.988C88.1362 2.988 88.6098 3.09767 89.0298 3.317C89.4498 3.53633 89.7788 3.842 90.0168 4.234C90.2548 4.62133 90.3738 5.06 90.3738 5.55C90.3738 6.04 90.2548 6.481 90.0168 6.873C89.7788 7.26033 89.4498 7.56367 89.0298 7.783C88.6098 8.00233 88.1362 8.112 87.6088 8.112ZM87.6088 6.775C87.8142 6.775 87.9985 6.726 88.1618 6.628C88.3298 6.52533 88.4628 6.383 88.5608 6.201C88.6588 6.01433 88.7078 5.79733 88.7078 5.55C88.7078 5.30267 88.6588 5.088 88.5608 4.906C88.4628 4.71933 88.3298 4.577 88.1618 4.479C87.9985 4.37633 87.8142 4.325 87.6088 4.325C87.4035 4.325 87.2168 4.37633 87.0488 4.479C86.8855 4.577 86.7548 4.71933 86.6568 4.906C86.5588 5.088 86.5098 5.30267 86.5098 5.55C86.5098 5.79733 86.5588 6.01433 86.6568 6.201C86.7548 6.383 86.8855 6.52533 87.0488 6.628C87.2168 6.726 87.4035 6.775 87.6088 6.775ZM99.1187 3.1L97.5507 8H95.7797L94.9887 5.382L94.1557 8H92.3847L90.8167 3.1H92.5177L93.3717 5.886L94.2747 3.1H95.7937L96.6477 5.921L97.5507 3.1H99.1187ZM103.91 6.754V8H99.8355V3.1H103.819V4.346H101.46V4.92H103.532V6.11H101.46V6.754H103.91ZM106.995 6.768H106.547V8H104.895V3.1H107.254C107.707 3.1 108.101 3.17467 108.437 3.324C108.773 3.47333 109.032 3.688 109.214 3.968C109.396 4.248 109.487 4.57467 109.487 4.948C109.487 5.298 109.408 5.60367 109.249 5.865C109.091 6.12633 108.862 6.334 108.563 6.488L109.592 8H107.828L106.995 6.768ZM107.821 4.948C107.821 4.766 107.765 4.626 107.653 4.528C107.541 4.42533 107.373 4.374 107.149 4.374H106.547V5.522H107.149C107.373 5.522 107.541 5.473 107.653 5.375C107.765 5.27233 107.821 5.13 107.821 4.948ZM110.461 3.1H112.113V8H110.461V3.1ZM118.089 3.1V8H116.731L114.869 5.774V8H113.259V3.1H114.617L116.479 5.326V3.1H118.089ZM122.476 5.417H123.911V7.489C123.621 7.68967 123.285 7.84367 122.903 7.951C122.52 8.05833 122.144 8.112 121.776 8.112C121.253 8.112 120.784 8.00467 120.369 7.79C119.953 7.57067 119.627 7.26733 119.389 6.88C119.155 6.488 119.039 6.04467 119.039 5.55C119.039 5.05533 119.155 4.61433 119.389 4.227C119.627 3.835 119.956 3.53167 120.376 3.317C120.8 3.09767 121.279 2.988 121.811 2.988C122.291 2.988 122.721 3.06967 123.099 3.233C123.481 3.39167 123.799 3.625 124.051 3.933L122.994 4.864C122.686 4.50467 122.319 4.325 121.895 4.325C121.531 4.325 121.241 4.43467 121.027 4.654C120.812 4.87333 120.705 5.172 120.705 5.55C120.705 5.91867 120.81 6.215 121.02 6.439C121.234 6.663 121.519 6.775 121.874 6.775C122.084 6.775 122.284 6.73533 122.476 6.656V5.417ZM70.311 15.222V17H68.659V15.201L66.811 12.1H68.554L69.555 13.794L70.563 12.1H72.159L70.311 15.222ZM75.0758 17.112C74.5485 17.112 74.0748 17.0023 73.6548 16.783C73.2348 16.5637 72.9058 16.2603 72.6678 15.873C72.4298 15.481 72.3108 15.04 72.3108 14.55C72.3108 14.06 72.4298 13.6213 72.6678 13.234C72.9058 12.842 73.2348 12.5363 73.6548 12.317C74.0748 12.0977 74.5485 11.988 75.0758 11.988C75.6031 11.988 76.0768 12.0977 76.4968 12.317C76.9168 12.5363 77.2458 12.842 77.4838 13.234C77.7218 13.6213 77.8408 14.06 77.8408 14.55C77.8408 15.04 77.7218 15.481 77.4838 15.873C77.2458 16.2603 76.9168 16.5637 76.4968 16.783C76.0768 17.0023 75.6031 17.112 75.0758 17.112ZM75.0758 15.775C75.2811 15.775 75.4655 15.726 75.6288 15.628C75.7968 15.5253 75.9298 15.383 76.0278 15.201C76.1258 15.0143 76.1748 14.7973 76.1748 14.55C76.1748 14.3027 76.1258 14.088 76.0278 13.906C75.9298 13.7193 75.7968 13.577 75.6288 13.479C75.4655 13.3763 75.2811 13.325 75.0758 13.325C74.8705 13.325 74.6838 13.3763 74.5158 13.479C74.3525 13.577 74.2218 13.7193 74.1238 13.906C74.0258 14.088 73.9768 14.3027 73.9768 14.55C73.9768 14.7973 74.0258 15.0143 74.1238 15.201C74.2218 15.383 74.3525 15.5253 74.5158 15.628C74.6838 15.726 74.8705 15.775 75.0758 15.775ZM81.1354 17.112C80.3841 17.112 79.7984 16.909 79.3784 16.503C78.9584 16.097 78.7484 15.5277 78.7484 14.795V12.1H80.4004V14.746C80.4004 15.1053 80.4634 15.3667 80.5894 15.53C80.7201 15.6933 80.9067 15.775 81.1494 15.775C81.3921 15.775 81.5764 15.6933 81.7024 15.53C81.8331 15.3667 81.8984 15.1053 81.8984 14.746V12.1H83.5224V14.795C83.5224 15.5277 83.3124 16.097 82.8924 16.503C82.4724 16.909 81.8867 17.112 81.1354 17.112ZM86.7297 15.768H86.2817V17H84.6297V12.1H86.9887C87.4413 12.1 87.8357 12.1747 88.1717 12.324C88.5077 12.4733 88.7667 12.688 88.9487 12.968C89.1307 13.248 89.2217 13.5747 89.2217 13.948C89.2217 14.298 89.1423 14.6037 88.9837 14.865C88.825 15.1263 88.5963 15.334 88.2977 15.488L89.3267 17H87.5627L86.7297 15.768ZM87.5557 13.948C87.5557 13.766 87.4997 13.626 87.3877 13.528C87.2757 13.4253 87.1077 13.374 86.8837 13.374H86.2817V14.522H86.8837C87.1077 14.522 87.2757 14.473 87.3877 14.375C87.4997 14.2723 87.5557 14.13 87.5557 13.948ZM92.0225 17.112C91.6165 17.112 91.2198 17.0677 90.8325 16.979C90.4498 16.8857 90.1348 16.762 89.8875 16.608L90.4195 15.404C90.6528 15.5393 90.9142 15.649 91.2035 15.733C91.4928 15.8123 91.7705 15.852 92.0365 15.852C92.2652 15.852 92.4285 15.831 92.5265 15.789C92.6245 15.7423 92.6735 15.6747 92.6735 15.586C92.6735 15.4833 92.6082 15.4063 92.4775 15.355C92.3515 15.3037 92.1415 15.2477 91.8475 15.187C91.4695 15.1077 91.1545 15.0237 90.9025 14.935C90.6505 14.8417 90.4312 14.6923 90.2445 14.487C90.0578 14.277 89.9645 13.9947 89.9645 13.64C89.9645 13.332 90.0508 13.052 90.2235 12.8C90.3962 12.548 90.6528 12.3497 90.9935 12.205C91.3388 12.0603 91.7565 11.988 92.2465 11.988C92.5825 11.988 92.9115 12.0253 93.2335 12.1C93.5602 12.17 93.8472 12.275 94.0945 12.415L93.5975 13.612C93.1168 13.3693 92.6618 13.248 92.2325 13.248C91.8078 13.248 91.5955 13.3507 91.5955 13.556C91.5955 13.654 91.6585 13.7287 91.7845 13.78C91.9105 13.8267 92.1182 13.878 92.4075 13.934C92.7808 14.004 93.0958 14.0857 93.3525 14.179C93.6092 14.2677 93.8308 14.4147 94.0175 14.62C94.2088 14.8253 94.3045 15.1053 94.3045 15.46C94.3045 15.768 94.2182 16.048 94.0455 16.3C93.8728 16.5473 93.6138 16.7457 93.2685 16.895C92.9278 17.0397 92.5125 17.112 92.0225 17.112ZM99.2201 15.754V17H95.1461V12.1H99.1291V13.346H96.7701V13.92H98.8421V15.11H96.7701V15.754H99.2201ZM100.206 12.1H101.858V15.719H104.07V17H100.206V12.1ZM106.528 13.346V14.186H108.572V15.432H106.528V17H104.876V12.1H108.859V13.346H106.528Z" fill="black"/>
<mask id="mask0" mask-type="alpha" maskUnits="userSpaceOnUse" x="0" y="0" width="50" height="71">
<rect width="49.3155" height="69.57" rx="24.6577" transform="matrix(-1 0 0 1 49.3154 0.64209)" fill="#030606"/>
</mask>
<g mask="url(#mask0)">
<path d="M67.6661 43.0575C65.8394 46.1256 65.1202 49.5095 63.6986 52.7364C62.1345 56.2867 58.8824 58.1911 55.5638 59.8687C51.3801 61.9835 49.6565 65.7566 47.2781 69.5674C45.7192 72.065 44.0169 73.428 41.0173 73.569C36.3959 73.7861 31.8305 71.7539 27.2727 71.1977C25.1999 70.9445 23.1254 71.0946 21.0512 71.2336C19.7858 71.3179 18.491 71.4089 17.2617 71.0323C14.2213 70.0998 12.4772 66.1815 10.6603 63.8953C7.89093 60.4098 4.72291 57.2685 2.04477 53.706C-0.47881 50.3486 -2.04588 46.733 -2.54862 42.5595C-3.02119 38.6338 -2.89804 34.7113 -2.29144 30.8078C-1.0859 23.0531 2.32074 15.5647 7.11345 9.37628C11.7684 3.36568 17.8517 -1.72551 24.9618 -4.55251C30.7609 -6.85898 37.3255 -6.1918 42.9866 -3.82549C52.4684 0.1383 60.2773 8.21129 64.8376 17.3306C67.0155 21.6861 68.0128 26.3714 68.8649 31.1327C69.6951 35.7716 70.8732 42.8451 66.7541 46.339C65.8896 47.0725 64.6306 45.8259 65.5023 45.0872C68.2954 42.719 67.9655 38.2925 67.647 35.004C67.3184 31.6125 66.579 28.1994 65.7859 24.887C64.2604 18.5141 60.5528 12.6813 56.1938 7.87226C51.6648 2.87579 45.9311 -1.28262 39.4282 -3.23991C32.5083 -5.32233 26.0484 -3.78098 20.0019 -0.0872211C6.09808 8.40691 -2.45341 25.3979 -0.911811 41.5983C-0.458778 46.3591 1.47626 50.2175 4.41232 53.938C7.16539 57.4255 10.3332 60.5576 13.02 64.1015C14.1661 65.6132 15.1273 67.2515 16.5104 68.5708C17.4904 69.5053 18.6759 69.5839 19.9626 69.5421C21.8336 69.4813 23.6887 69.2647 25.5639 69.3139C27.9275 69.3757 30.2782 69.8841 32.5748 70.4027C35.891 71.1515 41.5005 73.4063 44.3772 70.5716C45.7909 69.1786 46.7262 67.1301 47.7173 65.4396C48.8068 63.582 49.9723 61.775 51.6146 60.3578C54.9962 57.4406 59.6082 56.7046 61.9329 52.543C62.7265 51.1223 63.1721 49.5115 63.7253 47.9889C64.4437 46.0133 65.3809 44.1701 66.5684 42.4341C67.0216 41.7711 68.0872 42.35 67.6661 43.0575Z" fill="#030606"/>
<path d="M73.2684 45.4348C69.8608 49.1229 68.5452 54.1196 65.8102 58.2528C62.8447 62.7346 57.4704 65.1108 53.5946 68.6849C50.1311 71.8794 47.3021 76.016 43.3531 78.6351C41.3273 79.9783 39.4887 79.1522 37.4489 78.3378C35.4644 77.5458 33.5338 77.0732 31.3804 77.1543C29.1395 77.2389 26.944 78.0213 24.7723 78.5129C20.6879 79.4375 16.9128 78.7565 13.7648 75.9058C10.6428 73.0785 8.93794 68.8865 6.76625 65.3636C4.56513 61.793 1.54376 58.9239 -1.25209 55.8398C-3.56622 53.2863 -5.4241 50.4437 -5.94786 46.9811C-6.24832 44.9947 -5.93005 43.025 -5.89914 41.0346C-5.85958 38.4821 -6.02749 35.9283 -6.04257 33.376C-6.06977 28.6133 -4.90875 24.4769 -3.08944 20.1105C-1.51792 16.3396 -0.147945 12.5353 2.10832 9.10439C10.2565 -3.28577 26.1708 -10.6048 40.8476 -9.43239C47.9255 -8.86709 54.5551 -6.10513 58.9736 -0.388304C63.611 5.61117 64.7078 13.0696 67.7452 19.812C71.416 27.9601 80.2058 38.0508 72.4202 46.5649C71.6746 47.3802 70.4718 46.169 71.211 45.3557C76.0855 39.991 73.03 33.2539 70.0509 27.7722C68.6134 25.1275 67.0229 22.5502 65.8552 19.7687C64.0297 15.4199 62.9466 10.8025 61.0083 6.48583C58.9415 1.88329 55.9468 -2.1213 51.5317 -4.67975C47.8112 -6.83537 43.301 -7.64227 39.053 -7.82031C31.2088 -8.14995 23.3524 -5.82395 16.5873 -1.94324C9.9219 1.87984 4.24712 7.566 1.0294 14.5885C-0.894511 18.787 -2.91363 23.3101 -3.90797 27.8249C-4.97329 32.6619 -4.0153 37.8396 -4.23291 42.7458C-4.3249 44.8166 -4.41664 46.6626 -3.80881 48.683C-3.25241 50.5327 -2.104 52.1747 -0.88907 53.6478C1.57838 56.6395 4.45756 59.2323 6.78504 62.3511C9.45552 65.9296 11.0936 70.1934 13.9779 73.6178C15.3914 75.2959 17.1576 76.4681 19.2865 77.0079C21.7876 77.6425 24.3702 76.8368 26.7907 76.2181C29.0077 75.651 31.1974 75.2551 33.4925 75.4478C35.5687 75.6224 37.461 76.4715 39.3745 77.2268C40.556 77.6927 41.3684 77.775 42.4802 77.0979C44.8698 75.6421 46.7348 73.1969 48.6488 71.2003C50.687 69.0746 52.7709 66.9413 55.1268 65.163C57.9155 63.0583 60.942 61.2732 63.3793 58.739C65.3408 56.6993 66.5043 53.829 67.7363 51.3245C68.9646 48.8271 70.3628 46.4858 72.3411 44.5075C72.9412 43.9073 73.8401 44.8161 73.2684 45.4348Z" fill="#030606"/>
<path d="M74.4566 49.0957C71.7181 52.3525 70.816 56.6177 68.4022 60.0775C65.4538 64.3039 60.3263 66.3844 57.0603 70.3586C55.6231 72.1079 54.5553 74.1386 53.1561 75.9221C51.865 77.5678 50.111 78.7431 48.3983 79.9054C45.3856 81.9502 41.9263 83.8675 38.2659 84.3427C34.3011 84.8578 30.5134 82.6735 26.5696 82.6097C25.032 82.585 23.4246 83.3269 22.0057 83.8407C20.3345 84.4456 18.666 85.0527 16.9103 85.3613C13.9821 85.8759 11.2239 84.957 10.0774 82.043C8.50814 78.0537 9.26583 73.2929 6.41014 69.8328C3.6865 66.533 -1.21155 65.5758 -2.30927 61.0051C-2.57609 59.8945 -2.81176 59.1079 -3.54398 58.1947C-4.27966 57.278 -5.39964 56.6917 -6.32994 55.9958C-7.75655 54.9282 -8.55727 53.2046 -9.0056 51.5213C-9.45345 49.84 -9.37258 48.0301 -9.36195 46.3082C-9.3481 44.0757 -9.61839 41.9359 -10.2059 39.7811C-11.3447 35.6046 -12.8017 32.0283 -11.4362 27.7265C-10.0185 23.2607 -7.35891 19.2845 -4.93771 15.3192C-3.7297 13.3412 -2.5766 11.3334 -1.57854 9.23989C-0.534487 7.0499 -0.086404 4.5958 0.633206 2.28959C1.88374 -1.71773 4.11404 -4.34863 7.98288 -5.99335C9.83458 -6.78072 11.7785 -7.33786 13.6953 -7.94001C15.6053 -8.53944 17.3865 -9.3681 19.2414 -10.1063C32.7815 -15.4932 52.9049 -16.6574 62.6495 -3.6906C65.3727 -0.0673246 66.4209 4.49441 67.7803 8.73467C69.3704 13.6943 71.1105 18.621 73.6818 23.1687C75.6683 26.6809 77.8113 29.7715 78.4924 33.8399C79.0606 37.2357 78.4553 40.6592 77.2317 43.8428C76.4898 45.7741 75.3285 47.4601 74.4925 49.3244C74.0681 50.271 72.6746 49.4666 73.0953 48.5306C73.9403 46.6505 75.0986 44.9561 75.8481 43.0067C76.5469 41.1901 76.9745 39.2783 77.0922 37.3366C77.3284 33.4386 75.8896 29.7658 73.8703 26.5061C71.2463 22.2708 69.2002 17.9076 67.5464 13.2081C65.911 8.56034 64.9085 3.48003 62.5247 -0.855935C58.3744 -8.40443 49.7374 -11.5101 41.5882 -12.1056C33.3186 -12.7102 24.9588 -10.9426 17.4286 -7.5718C13.601 -5.85858 9.2673 -5.39293 5.7506 -2.98261C1.94087 -0.371732 1.83602 5.15468 0.239774 9.06852C-1.56964 13.5046 -4.46217 17.4477 -6.83936 21.5836C-8.04316 23.6776 -9.10057 25.8463 -9.88348 28.1337C-10.744 30.6482 -10.5245 32.8308 -9.84812 35.3558C-9.31175 37.3576 -8.60129 39.3035 -8.17917 41.3365C-7.7746 43.2846 -7.75235 45.2585 -7.76496 47.239C-7.77831 49.2925 -7.65293 51.2612 -6.68158 53.1119C-5.64148 55.0937 -3.2235 56.1318 -1.7771 57.8354C-0.542142 59.2894 -0.982316 61.4374 0.321639 62.8996C1.89291 64.6608 4.09897 65.7733 5.95389 67.1999C9.50941 69.9345 10.0181 73.8602 10.6989 78C10.9575 79.5743 11.281 81.1638 12.1403 82.5301C12.942 83.8042 14.5981 83.9538 15.9481 83.8689C18.7899 83.6919 21.5024 82.2049 24.1959 81.3998C27.1864 80.5063 30.2077 81.4089 33.1344 82.1481C36.7495 83.0613 39.7019 82.746 43.0611 81.149C46.1 79.7041 49.408 77.7404 51.686 75.2442C53.0251 73.7766 53.9935 71.9768 55.1387 70.3618C56.4184 68.5573 58.0008 67.0709 59.7318 65.7058C63.1921 62.977 66.6292 60.8743 68.745 56.8717C70.313 53.9059 71.3833 50.8341 73.626 48.265C74.127 47.6908 74.9383 48.5225 74.4566 49.0957Z" fill="#030606"/>
<path d="M79.0128 21.6779C82.7812 28.7229 82.9558 36.7287 80.8835 44.3259C78.7148 52.2782 74.2631 60.2251 68.2327 65.8618C64.2803 69.556 59.7443 72.5613 56.0261 76.5155C53.3294 79.3838 51.2393 82.7256 48.2115 85.2945C42.8154 89.8725 36.5296 88.5686 30.0288 88.2441C23.0417 87.8952 15.5778 90.4188 9.09114 86.7428C5.37167 84.6342 3.02638 80.5767 1.26123 76.8347C-0.810057 72.4443 -2.1746 67.7562 -4.34753 63.4106C-8.15899 55.788 -18.8411 53.6432 -20.8874 44.9013C-21.793 41.0322 -19.7435 37.6657 -18.3503 34.2254C-16.592 29.883 -16.5473 25.0893 -14.4948 20.8067C-13.4539 18.6353 -11.7397 16.7331 -10.2953 14.8248C-8.58829 12.5693 -7.23958 10.1785 -6.00685 7.63761C-3.77655 3.04125 -1.80937 -1.69458 0.849235 -6.07085C2.99768 -9.60757 5.77053 -12.7573 9.16061 -15.1424C12.5722 -17.5431 16.3612 -18.3423 20.4501 -18.5349C35.3322 -19.235 54.6464 -20.701 65.43 -8.16713C73.2203 0.887849 72.8823 14.1284 79.2077 24.04C79.7791 24.9354 78.3528 25.7381 77.7771 24.8524C72.6454 16.9564 71.7037 7.43334 67.8841 -1.02938C64.2511 -9.07839 57.1903 -13.6268 48.805 -15.6479C40.6415 -17.6153 32.042 -17.3326 23.717 -16.9689C19.3185 -16.7767 15.2338 -16.6867 11.2937 -14.4633C7.3653 -12.2461 4.37928 -8.57762 2.07084 -4.77703C-0.605316 -0.369852 -2.5542 4.45006 -4.79933 9.07856C-5.93587 11.4209 -7.24403 13.5871 -8.79972 15.674C-10.372 17.7824 -12.1139 19.8107 -13.2576 22.1972C-15.2972 26.4541 -15.2735 31.3741 -17.1158 35.7051C-17.8636 37.4639 -18.735 39.1385 -19.1826 41.009C-19.7608 43.4265 -19.0644 45.8381 -17.7602 47.8836C-15.4199 51.5554 -11.145 53.8153 -7.84815 56.5157C-4.41874 59.3249 -2.55617 62.8092 -0.925049 66.8677C2.34386 75.0018 5.28636 85.8491 15.5147 86.9357C19.1617 87.323 22.8659 86.7416 26.5065 86.5368C30.3691 86.3197 34.1417 87.0819 37.996 87.0789C41.0478 87.0767 43.855 86.3541 46.3501 84.5701C49.4061 82.3856 51.5939 79.1088 53.9587 76.2558C57.4069 72.0964 62.0161 69.0406 66.0712 65.5267C69.7004 62.3812 72.4448 58.6501 74.8245 54.5063C78.9658 47.2946 81.5361 38.9337 80.4532 30.5707C80.0813 27.7016 79.1829 24.8882 77.9719 22.2687C77.6534 21.5797 78.6436 20.9877 79.0128 21.6779Z" fill="#030606"/>
<path d="M74.8082 65.2739C68.0418 72.7578 59.4936 78.0948 52.4243 85.2259C49.8721 87.8004 47.2209 90.2997 43.8451 91.7447C40.1462 93.3283 36.2222 92.9138 32.3108 93.1668C27.9521 93.4487 23.6164 94.0044 19.2505 94.1861C15.6606 94.3353 11.7233 94.3283 8.35349 92.9141C-1.09196 88.95 -1.94139 77.9924 -5.44102 69.7112C-7.43244 64.9991 -11.1593 61.3534 -14.7913 57.8787C-18.052 54.7594 -21.4461 51.7402 -23.3512 47.564C-26.4999 40.6615 -24.2083 33.0769 -21.7171 26.3743C-20.9386 24.2803 -20.2071 22.1779 -19.1876 20.185C-18.1146 18.0882 -16.4968 16.3503 -14.8647 14.6796C-13.5622 13.3464 -12.1782 12.1414 -11.1401 10.576C-9.68007 8.37518 -8.99359 5.61099 -8.10385 3.14453C-5.05799 -5.29767 -1.27027 -13.1894 6.6499 -18.0452C13.389 -22.1769 21.553 -23.8105 29.3476 -24.2694C37.265 -24.7351 45.4886 -23.7274 52.8002 -20.5579C60.9684 -17.0169 67.3116 -9.83444 71.678 -2.25776C74.0871 1.92291 76.0164 6.38499 77.9134 10.8142C79.6849 14.9518 81.5485 19.0618 83.0377 23.3122C85.4938 30.3213 86.82 37.7986 85.56 45.1888C84.2113 53.0996 79.5922 59.8904 74.051 65.5058C73.4048 66.1604 72.3934 65.149 73.0423 64.4971C78.3948 59.1233 82.6393 52.7516 84.1359 45.2237C85.544 38.1418 84.1238 30.8465 81.8643 24.1032C80.3588 19.6105 78.3486 15.2921 76.4808 10.9425C74.5777 6.50962 72.5699 2.1378 70.0713 -1.99588C65.3222 -9.85249 58.3835 -16.803 49.6336 -19.9755C41.6875 -22.8567 32.7868 -23.305 24.4609 -22.2053C16.4178 -21.1432 8.14526 -18.4302 2.29688 -12.5912C-1.28782 -9.01244 -3.52925 -4.42919 -5.3399 0.237146C-6.94406 4.37157 -7.92555 9.0807 -10.6769 12.6377C-11.7778 14.0606 -13.2017 15.2273 -14.4349 16.5303C-16.3025 18.5031 -17.7036 20.5512 -18.7704 23.0493C-20.446 26.9723 -21.9275 31.1666 -22.7997 35.348C-23.5975 39.1715 -23.501 43.147 -21.9617 46.7749C-20.0902 51.1851 -16.1679 54.3373 -12.7959 57.5758C-9.31283 60.9213 -6.06494 64.4798 -4.04285 68.9174C-2.03907 73.3155 -1.20299 78.171 0.77928 82.595C2.78356 87.0672 5.99213 90.7881 10.8872 92.0164C14.9363 93.0328 19.386 92.6079 23.4975 92.284C27.6467 91.9573 31.7915 91.4071 35.9586 91.3816C40.4531 91.3542 44.154 90.3443 47.6744 87.4737C51.3323 84.4914 54.2782 80.7556 58.0702 77.9123C63.6493 73.7294 69.0117 69.3507 73.7688 64.2345C74.4165 63.5379 75.4405 64.5743 74.8082 65.2739Z" fill="#030606"/>
<path d="M75.0111 70.4225C67.3902 77.4544 60.3405 85.1006 51.7994 91.0654C44.9413 95.8547 36.6183 100.387 28.069 98.1443C26.2468 97.6663 24.5066 96.9707 22.647 96.6255C20.8076 96.2847 18.8993 96.4615 17.0521 96.6262C13.0489 96.9838 9.28076 96.8923 5.5598 95.2174C2.18975 93.7 -0.385766 90.8738 -2.42442 87.8692C-5.08524 83.9467 -6.24379 79.7084 -7.48716 75.1984C-8.19218 72.6417 -9.11061 70.1762 -10.5068 67.9125C-11.8985 65.6562 -13.8979 63.8364 -15.8688 62.0985C-19.0704 59.2752 -22.0055 56.214 -24.3617 52.6387C-28.6858 46.0762 -30.0298 37.4801 -28.8739 29.7707C-27.6148 21.3722 -21.5668 15.8634 -17.055 9.12156C-14.2164 4.87982 -12.6617 -0.0869806 -9.77088 -4.27704C-8.50749 -6.10822 -6.98567 -7.75418 -5.58404 -9.47778C-3.91781 -11.5263 -2.45633 -13.7445 -0.87319 -15.8578C1.6133 -19.1767 4.3817 -22.1914 7.96417 -24.3406C11.6347 -26.5427 15.985 -27.4661 20.1513 -28.2144C28.3499 -29.6872 37.1252 -30.3678 45.3921 -29.0863C52.8938 -27.9231 59.2521 -22.2334 64.2078 -16.8277C67.3056 -13.4485 69.8584 -9.61331 72.2924 -5.74249C75.2119 -1.10039 78.1727 3.59835 80.7576 8.43557C86.2781 18.7663 90.3408 31.4208 89.1231 43.2699C88.6165 48.1991 88.9572 53.1746 86.5731 57.6923C85.1742 60.3435 82.8316 62.506 80.7059 64.5649C78.0777 67.1105 75.3321 69.5273 72.8975 72.2655C72.1849 73.0672 71.0144 71.8879 71.7229 71.0909C75.292 67.0767 79.5333 63.734 83.1054 59.7228C86.1683 56.284 86.9319 52.2393 87.2136 47.7824C87.5012 43.2316 87.841 38.7922 87.3988 34.2337C86.925 29.3513 85.7153 24.5435 84.1299 19.911C82.5643 15.3359 80.4819 10.9601 78.0644 6.77749C75.2092 1.83765 72.2034 -3.06683 69.0371 -7.81329C64.3228 -14.8803 58.3856 -21.5732 50.7827 -25.6037C47.2969 -27.4515 43.4491 -27.8392 39.5652 -28.0089C35.0693 -28.2055 30.5471 -27.9312 26.0786 -27.4426C21.7661 -26.971 17.4386 -26.2207 13.2881 -24.9417C8.70036 -23.5277 5.06495 -20.606 2.02503 -16.9741C-1.04432 -13.3073 -3.66112 -9.29033 -6.728 -5.61265C-10.0837 -1.58827 -11.8268 3.31818 -14.3888 7.83269C-18.5365 15.1413 -25.4975 20.5933 -27.1731 29.1846C-28.0173 33.5122 -27.7208 38.4508 -26.813 42.743C-25.9886 46.6378 -24.2175 50.2002 -21.8947 53.4103C-19.1275 57.2353 -15.464 60.066 -12.1453 63.3589C-8.62197 66.8556 -6.87265 71.2351 -5.59985 75.9462C-4.32038 80.6832 -2.76542 84.9762 0.318021 88.8688C2.80426 92.0078 6.09494 94.1461 10.0303 94.931C14.0532 95.7342 18.0753 94.4688 22.1094 94.8984C25.9211 95.3039 29.3136 97.2073 33.2107 97.214C36.8065 97.2207 40.2604 95.6457 43.4296 94.1135C47.4945 92.1485 51.2662 89.6069 54.815 86.8296C61.6157 81.5077 67.6548 75.2481 74.0605 69.4719C74.7013 68.8945 75.6501 69.8329 75.0111 70.4225Z" fill="#030606"/>
<path d="M41.7161 65.8129C48.634 58.5518 57.5139 52.9153 61.3263 43.2154C64.1855 35.9407 63.221 28.1605 59.9276 21.2136C56.7426 14.4948 51.4988 8.68374 45.2728 4.65021C42.1837 2.64866 38.6929 1.0487 35.0662 0.352832C31.4073 -0.349467 27.9569 0.756165 24.9321 2.78987C21.9441 4.7986 19.5184 7.5566 16.9239 10.0216C13.6587 13.1236 10.2038 16.028 7.36936 19.5494C4.38953 23.2518 3.33238 27.2556 3.02796 31.9168C2.76411 35.9553 2.99087 40.0155 4.07993 43.9251C5.22265 48.0259 7.53728 51.3435 10.228 54.5694C11.9304 56.6101 13.6525 58.6334 15.4639 60.5788C16.8015 62.0158 18.1959 63.5072 19.9648 64.41C22.3383 65.6213 25.8025 64.2115 28.2771 63.958C32.392 63.5356 36.3919 65.6086 40.4452 64.9343C41.4987 64.7592 41.9359 66.374 40.8693 66.5523C36.7715 67.2366 32.8802 65.1959 28.7875 65.5941C26.0285 65.8624 22.9476 67.01 20.1876 66.2872C18.8648 65.9408 17.736 65.0582 16.7139 64.1914C14.6862 62.4718 12.9442 60.358 11.214 58.3497C8.23735 54.8949 5.27063 51.5087 3.46938 47.2707C1.95374 43.705 1.3558 39.8513 1.24204 35.9995C1.11988 31.855 1.34368 27.4624 2.92855 23.596C4.6299 19.4455 7.96162 16.0777 11.1573 13.0422C14.2999 10.0574 17.4063 7.00837 20.606 4.08714C23.026 1.87786 25.7085 -0.064837 28.8699 -1.03718C32.3463 -2.10646 35.932 -1.41751 39.2743 -0.240909C45.8732 2.08237 51.616 6.66883 56.0422 12.011C60.5407 17.4397 63.73 23.9961 64.5876 31.028C65.6103 39.4141 62.1206 47.3822 56.679 53.6067C52.4543 58.4388 47.2385 62.2935 42.5662 66.6631C42.0004 67.1918 41.1807 66.375 41.7161 65.8129Z" fill="#030606"/>
<path d="M40.4659 64.9451C40.4892 64.9644 40.5124 64.9842 40.5354 65.0037C40.5614 65.0257 40.5876 65.0475 40.6136 65.0695C40.527 64.9963 40.5923 65.0423 40.6193 65.0564C40.5006 65.041 40.3821 65.0255 40.2637 65.0099C40.2696 65.0089 40.2755 65.0079 40.2817 65.0067C40.76 64.9152 41.1395 65.4807 40.7671 65.8531C40.395 66.2253 39.8294 65.8457 39.9209 65.3675C39.9221 65.3613 39.9231 65.3553 39.9241 65.3494C39.9397 65.4679 39.9553 65.5863 39.9706 65.705C39.9627 65.6892 39.9545 65.6736 39.9466 65.6583C39.9963 65.755 39.9649 65.6771 39.939 65.6462C39.9123 65.615 39.8858 65.5831 39.8593 65.5517C39.5022 65.1278 40.0421 64.588 40.4659 64.9451Z" fill="#030606"/>
<path d="M36.9145 61.2921C33.5425 59.7683 30.206 60.7317 26.7259 61.1751C23.3522 61.6051 20.1701 60.9874 17.4637 58.8306C11.0592 53.7248 7.89365 44.5472 6.13542 36.8228C4.46647 29.488 9.32149 22.5543 13.7655 17.2457C16.1766 14.3658 18.6979 11.2851 21.7737 9.10003C24.8463 6.9177 28.6177 5.97578 32.3322 5.76633C36.0074 5.5591 39.7291 6.23815 43.2485 7.24363C46.8238 8.26443 50.1422 9.59806 52.7019 12.3828C57.824 17.9544 58.8559 26.6924 58.4575 33.9244C58.0826 40.7129 55.749 46.7119 51.5916 52.0766C47.8427 56.915 41.9686 61.6783 35.4644 60.9681C34.3063 60.8417 34.2942 59.015 35.4641 59.1434C42.8019 59.9463 48.9001 53.3843 52.4289 47.7223C56.5267 41.1467 57.3991 33.1968 56.316 25.6244C55.725 21.4927 54.3844 17.2796 51.7214 14.0038C49.0262 10.6889 44.8393 9.45117 40.8434 8.46128C36.7755 7.45382 32.4858 7.16128 28.3808 8.10642C24.1598 9.07802 21.1998 11.6167 18.3394 14.712C14.5032 18.8637 10.5389 23.2682 8.4995 28.6277C6.242 34.5599 8.5779 40.801 10.8802 46.3699C13.1468 51.8513 16.9904 59.1001 23.6096 59.7784C28.4241 60.2717 32.8614 57.8473 37.4761 60.3032C38.1334 60.6533 37.5698 61.5878 36.9145 61.2921Z" fill="#030606"/>
<path d="M29.3168 55.6065C22.8174 59.5525 18.9023 52.4667 16.9984 47.2061C16.3673 45.4622 15.6851 43.8759 14.7238 42.2816C13.71 40.6015 12.5798 38.963 11.8573 37.1271C10.4739 33.6131 11.3995 30.6123 13.6269 27.701C14.8819 26.0607 16.285 24.5349 17.4532 22.8296C18.6357 21.104 19.2287 18.9907 20.0977 17.0999C21.6922 13.6305 24.7942 11.715 28.5762 11.4098C32.6275 11.0832 36.8804 11.9096 40.8442 12.6567C44.555 13.356 47.8568 14.4871 50.2197 17.616C53.2878 21.6782 54.0996 26.9601 54.1963 31.9264C54.2918 36.8375 53.7678 42.4483 51.8468 47.0078C49.9252 51.568 46.6775 55.5788 41.5025 56.1444C36.6317 56.6763 31.8951 54.1253 27.2423 56.6147C26.2475 57.1466 25.3756 55.6233 26.3761 55.0887C29.5473 53.3938 32.8217 53.5854 36.2736 54.0694C38.016 54.3137 39.7411 54.5244 41.5025 54.396C43.8616 54.2244 45.7393 52.9388 47.2947 51.2394C50.2714 47.9878 51.2247 43.6897 51.9121 39.4907C52.6063 35.248 52.7015 30.8173 51.9942 26.5718C51.3169 22.5096 49.6247 18.3905 46.0351 16.0977C44.3414 15.0163 42.3423 14.7042 40.4075 14.3244C38.0528 13.8624 35.6796 13.4922 33.2925 13.2506C28.9897 12.8154 24.3228 12.9598 21.9405 17.1484C20.999 18.804 20.4102 20.6614 19.607 22.385C18.7574 24.2085 17.3028 25.7605 16.0315 27.2964C13.7663 30.0339 12.0079 32.6757 13.2629 36.2962C14.3393 39.4009 16.7791 41.854 17.9092 44.9427C19.6607 49.7309 22.0973 57.594 28.7525 54.6134C29.4138 54.3172 29.9573 55.2178 29.3168 55.6065Z" fill="#030606"/>
<path d="M27.0508 50.7872C26.8641 51.6025 25.8055 51.4455 25.2197 51.236C23.4483 50.6037 22.3613 49.0537 21.5934 47.4298C19.9838 44.0258 19.0258 39.9015 19.0374 36.1282C19.0577 29.6408 22.9676 22.2095 28.5338 18.8323C31.7679 16.8698 35.7421 17.1975 39.2021 18.3587C43.0665 19.6563 45.8619 22.7113 47.4566 26.3798C49.1659 30.3117 49.6676 35.1093 49.1167 39.3414C48.6973 42.5641 47.4373 45.3162 44.7266 47.2045C42.1236 49.0176 38.6836 49.5886 35.6389 50.1702C33.7845 50.5241 32.0105 50.7462 30.3005 51.5837C28.8647 52.287 27.5852 52.3389 26.0963 51.7388C25.0787 51.329 25.506 49.6603 26.533 50.0735C28.3632 50.8112 29.4525 49.9979 31.1254 49.3383C32.9695 48.6116 35.2062 48.5223 37.1469 48.1177C40.2949 47.4614 43.8413 46.5714 45.8181 43.8137C48.1691 40.5339 47.7892 35.5 47.2009 31.7534C46.5043 27.3182 44.4649 23.1151 40.4851 20.7965C37.0435 18.7917 32.4702 18.4248 29.0254 20.5054C25.9487 22.3636 23.8319 25.6916 22.3796 28.8883C20.8901 32.1671 20.3535 35.6306 20.8612 39.1869C21.1646 41.3128 21.7037 43.4148 22.4028 45.4433C22.7829 46.5455 23.2619 47.709 23.9956 48.6286C24.2068 48.8942 26.1784 50.3099 26.1223 50.4091C26.4096 49.9002 27.1775 50.2343 27.0508 50.7872Z" fill="#030606"/>
<path d="M28.7873 47.5614C24.8725 47.5883 24.1655 42.6309 24.1447 39.6639C24.1106 34.8487 25.4919 29.6181 28.2165 25.6234C30.7196 21.9536 34.6923 20.1872 38.8139 22.3953C45.2854 25.8622 46.2684 36.2773 42.5422 42.0446C40.7311 44.8474 37.2292 46.7557 34.2195 47.9444C31.7787 48.9083 27.8481 49.5688 26.7684 46.4129C26.4709 45.5437 27.8444 44.9928 28.2541 45.8081C29.522 48.3297 33.4694 46.4945 35.2653 45.6187C37.7339 44.4146 40.3386 42.6987 41.5936 40.182C43.5732 36.2118 43.3289 30.8605 41.1789 27.0334C39.8134 24.6036 36.8439 22.5337 33.9544 23.1418C29.3976 24.1006 27.2865 30.3493 26.3658 34.2449C25.8035 36.6248 25.5693 39.0994 25.7704 41.5399C25.8997 43.106 26.3208 45.2082 27.7957 46.0737C28.0954 46.2497 28.4455 46.3165 28.7873 46.3373C29.5695 46.3855 29.5833 47.5562 28.7873 47.5614Z" fill="#030606"/>
<path d="M32.3989 44.4542C31.7162 45.446 30.7426 45.6728 29.7987 44.8654C28.6159 43.8537 28.3122 41.8927 28.1653 40.4515C27.7375 36.2531 29.973 32.1901 34.5019 32.0353C42.7072 31.7541 38.9165 47.9993 30.3261 44.9611C29.5712 44.6938 29.6097 43.3698 30.5183 43.4717C33.5068 43.8073 35.6527 42.8646 36.9401 40.044C37.8257 38.1035 37.9493 34.963 35.7576 33.8667C34.4687 33.2218 32.5663 33.8002 31.5252 34.6474C30.4248 35.5431 29.974 36.9836 29.7475 38.3283C29.6174 39.1018 29.9283 45.3155 31.6793 43.9062C32.049 43.6087 32.7137 43.9964 32.3989 44.4542Z" fill="#030606"/>
</g>
</svg>
