<svg width="378" height="249" viewBox="0 0 378 249" fill="none" xmlns="http://www.w3.org/2000/svg">
<path fill-rule="evenodd" clip-rule="evenodd" d="M66.5568 0.343301C131.383 -4.0393 194.118 34.1199 238.473 81.5984C278.58 124.53 272.458 189.687 294.371 244.199C318.722 304.776 396.818 356.959 373.708 418.02C350.299 479.875 250.26 458.597 197.926 499.035C142.717 541.693 134.988 641.75 66.5568 655.349C-0.43187 668.662 -54.1198 600.513 -109.149 560.059C-163.825 519.866 -243.747 488.974 -251.476 421.556C-259.355 352.842 -176.193 311.167 -144.748 249.564C-120.513 202.084 -123.736 144.415 -89.2616 103.755C-47.9366 55.0152 2.80135 4.65354 66.5568 0.343301Z" fill="#FEFAEE"/>
</svg>
