<svg width="630" height="658" viewBox="0 0 630 658" fill="none" xmlns="http://www.w3.org/2000/svg">
<path fill-rule="evenodd" clip-rule="evenodd" d="M318.557 0.343301C383.383 -4.0393 446.118 34.1199 490.473 81.5984C530.58 124.53 524.458 189.687 546.371 244.199C570.722 304.776 648.818 356.959 625.708 418.02C602.299 479.875 502.26 458.597 449.926 499.035C394.717 541.693 386.988 641.75 318.557 655.349C251.568 668.662 197.88 600.513 142.851 560.059C88.1755 519.866 8.25307 488.974 0.52351 421.556C-7.35476 352.842 75.8075 311.167 107.252 249.564C131.487 202.084 128.264 144.415 162.738 103.755C204.063 55.0152 254.801 4.65354 318.557 0.343301Z" fill="#EFF6F9"/>
</svg>
