<svg width="411" height="496" viewBox="0 0 411 496" fill="none" xmlns="http://www.w3.org/2000/svg">
<path fill-rule="evenodd" clip-rule="evenodd" d="M409.609 227.571C415.121 278.984 404.534 333.563 372.813 374.337C341.593 414.466 288.507 424.849 241.391 443.795C190.162 464.395 136.102 513.608 86.419 489.5C35.4913 464.787 55.0115 382.386 21.1659 336.932C-13.4877 290.393 -102.188 285.288 -108.616 227.571C-114.862 171.488 -43.4306 140.453 -5.34375 98.9012C27.4104 63.1671 51.0008 12.787 98.1874 1.95252C144.515 -8.68465 186.549 26.7763 230.571 44.733C270.67 61.0892 313.296 71.0951 343.623 102.066C377.498 136.659 404.442 179.372 409.609 227.571Z" fill="#E9F3F7"/>
</svg>
