<svg width="576" height="699" viewBox="0 0 576 699" fill="none" xmlns="http://www.w3.org/2000/svg">
<path fill-rule="evenodd" clip-rule="evenodd" d="M197.778 135.419C239.547 104.939 292.107 86.8182 343.279 93.9027C393.642 100.875 429.177 141.658 469.142 172.988C512.597 207.054 582.247 229.264 586.21 284.346C590.272 340.806 509.15 365.102 486.709 417.14C463.731 470.421 503.661 549.79 456.89 584.215C411.444 617.665 348.851 571.322 293.823 559.114C246.499 548.615 191.073 553.375 158.097 517.927C125.722 483.125 135.415 428.993 128.955 381.89C123.07 338.985 110.422 297.066 122.08 255.317C135.102 208.684 158.62 163.994 197.778 135.419Z" fill="#EBF2F3"/>
</svg>
