<svg width="27" height="27" viewBox="0 0 27 27" fill="none" xmlns="http://www.w3.org/2000/svg">
<path d="M25.9878 0H1.41095C0.825787 0 0.324219 0.501568 0.324219 1.08673V25.58C0.324219 26.2487 0.825787 26.7503 1.41095 26.7503H14.5353V16.7189H11.1915V12.5392H14.5353V9.19541C14.5353 5.76803 16.7088 4.01254 19.8018 4.01254C21.3065 4.01254 22.5604 4.17973 22.8948 4.17973V7.7743H20.7213C19.0494 7.7743 18.6314 8.61025 18.6314 9.78058V12.5392H22.8112L21.9752 16.7189H18.6314L18.715 26.7503H25.9042C26.4893 26.7503 26.9909 26.2487 26.9909 25.6636V1.08673C27.0745 0.501568 26.5729 0 25.9878 0Z" fill="#010101"/>
</svg>
