<svg width="28" height="27" viewBox="0 0 28 27" fill="none" xmlns="http://www.w3.org/2000/svg">
<path d="M13.9582 2.41003C17.5293 2.41003 17.9523 2.42341 19.3625 2.48778C20.8848 2.55716 22.2976 2.86228 23.3843 3.94901C24.471 5.03574 24.7761 6.44849 24.8455 7.97075C24.9099 9.38099 24.9233 9.80398 24.9233 13.3751C24.9233 16.9463 24.9099 17.3693 24.8455 18.7795C24.7761 20.3018 24.471 21.7145 23.3843 22.8013C22.2976 23.888 20.8848 24.1931 19.3625 24.2625C17.9523 24.3269 17.5293 24.3403 13.9582 24.3403C10.387 24.3403 9.964 24.3269 8.55376 24.2625C7.0315 24.1931 5.61875 23.888 4.53202 22.8013C3.44529 21.7145 3.14017 20.3018 3.07079 18.7795C3.00642 17.3693 2.99304 16.9463 2.99304 13.3751C2.99304 9.80398 3.00642 9.38099 3.07079 7.97075C3.14017 6.44849 3.44529 5.03574 4.53202 3.94901C5.61875 2.86228 7.0315 2.55716 8.55376 2.48778C9.964 2.42341 10.387 2.41003 13.9582 2.41003ZM13.9582 0C10.326 0 9.87037 0.015047 8.44341 0.0802509C6.26995 0.179729 4.36065 0.712227 2.82752 2.24452C1.29523 3.77681 0.762736 5.68611 0.663259 7.86041C0.598055 9.28737 0.583008 9.74296 0.583008 13.3751C0.583008 17.0073 0.598055 17.4629 0.663259 18.8899C0.762736 21.0633 1.29523 22.9726 2.82752 24.5058C4.35981 26.0381 6.26912 26.5706 8.44341 26.67C9.87037 26.7352 10.326 26.7503 13.9582 26.7503C17.5903 26.7503 18.0459 26.7352 19.4729 26.67C21.6464 26.5706 23.5557 26.0381 25.0888 24.5058C26.6211 22.9735 27.1536 21.0642 27.253 18.8899C27.3183 17.4629 27.3333 17.0073 27.3333 13.3751C27.3333 9.74296 27.3183 9.28737 27.253 7.86041C27.1536 5.68694 26.6211 3.77764 25.0888 2.24452C23.5565 0.712227 21.6472 0.179729 19.4729 0.0802509C18.0459 0.015047 17.5903 0 13.9582 0Z" fill="#010101"/>
<path d="M13.9583 6.50684C10.1648 6.50684 7.09021 9.58228 7.09021 13.375C7.09021 17.1685 10.1657 20.2431 13.9583 20.2431C17.751 20.2431 20.8265 17.1677 20.8265 13.375C20.8265 9.58145 17.7519 6.50684 13.9583 6.50684ZM13.9583 17.8331C11.4956 17.8331 9.50024 15.8368 9.50024 13.375C9.50024 10.9123 11.4965 8.91687 13.9583 8.91687C16.421 8.91687 18.4165 10.9131 18.4165 13.375C18.4165 15.8377 16.421 17.8331 13.9583 17.8331Z" fill="#010101"/>
<path d="M21.0981 7.84041C21.9845 7.84041 22.7031 7.12182 22.7031 6.23539C22.7031 5.34896 21.9845 4.63037 21.0981 4.63037C20.2116 4.63037 19.493 5.34896 19.493 6.23539C19.493 7.12182 20.2116 7.84041 21.0981 7.84041Z" fill="#010101"/>
</svg>
