<svg width="28" height="23" viewBox="0 0 28 23" fill="none" xmlns="http://www.w3.org/2000/svg">
<path d="M27.2455 3.09925C26.2424 3.51722 25.2392 3.8516 24.0689 3.93519C25.2392 3.26644 26.0752 2.17971 26.4932 0.925786C25.4064 1.59454 24.2361 2.01252 22.9822 2.2633C21.979 1.17657 20.5579 0.507812 19.0532 0.507812C16.0438 0.507812 13.536 2.93206 13.536 6.02506C13.536 6.44303 13.6196 6.86101 13.7032 7.27898C9.10547 7.0282 5.09292 4.85474 2.3343 1.51095C1.83273 2.3469 1.58195 3.26644 1.58195 4.26957C1.58195 6.19225 2.58508 7.86414 4.00619 8.86728C3.08665 8.86728 2.2507 8.6165 1.49835 8.19852V8.28212C1.49835 10.9571 3.42103 13.1306 5.92887 13.6322C5.4273 13.7158 5.00933 13.7994 4.50776 13.7994C4.17338 13.7994 3.839 13.7994 3.50462 13.7158C4.17338 15.8892 6.26325 17.4775 8.6039 17.5611C6.76482 19.0658 4.34057 19.9018 1.74914 19.9018C1.33116 19.9018 0.829594 19.9018 0.411621 19.8182C2.91946 21.3229 5.84527 22.2424 8.93828 22.2424C19.0532 22.2424 24.5705 13.883 24.5705 6.61022C24.5705 6.35944 24.5705 6.10866 24.5705 5.94147C25.5736 5.10552 26.4932 4.18598 27.2455 3.09925Z" fill="#010101"/>
</svg>
